<!DOCTYPE svg PUBLIC "-//W3C//DTD SVG 1.1//EN" "http://www.w3.org/Graphics/SVG/1.1/DTD/svg11.dtd">
<svg width="212mm" height="52.08mm" viewBox="0 0 212 52.08" xmlns="http://www.w3.org/2000/svg" version="1.1" xmlns:xlink="http://www.w3.org/1999/xlink">
<title>Airfoil plot (naca4415-il) NACA 4415 by AirfoilTools.com</title>
<g transform="translate(6,28.722)"><g transform="scale(1,-1)"><line fill="none" stroke="green" stroke-width="0.1" x1="10" x2="10" y1="-14.35" y2="28.72"></line><line fill="none" stroke="green" stroke-width="0.1" x1="20" x2="20" y1="-14.35" y2="28.72"></line><line fill="none" stroke="green" stroke-width="0.1" x1="30" x2="30" y1="-14.35" y2="28.72"></line><line fill="none" stroke="green" stroke-width="0.1" x1="40" x2="40" y1="-14.35" y2="28.72"></line><line fill="none" stroke="green" stroke-width="0.1" x1="50" x2="50" y1="-14.35" y2="28.72"></line><line fill="none" stroke="green" stroke-width="0.1" x1="60" x2="60" y1="-14.35" y2="28.72"></line><line fill="none" stroke="green" stroke-width="0.1" x1="70" x2="70" y1="-14.35" y2="28.72"></line><line fill="none" stroke="green" stroke-width="0.1" x1="80" x2="80" y1="-14.35" y2="28.72"></line><line fill="none" stroke="green" stroke-width="0.1" x1="90" x2="90" y1="-14.35" y2="28.72"></line><line fill="none" stroke="green" stroke-width="0.1" x1="100" x2="100" y1="-14.35" y2="28.72"></line><line fill="none" stroke="green" stroke-width="0.1" x1="110" x2="110" y1="-14.35" y2="28.72"></line><line fill="none" stroke="green" stroke-width="0.1" x1="120" x2="120" y1="-14.35" y2="28.72"></line><line fill="none" stroke="green" stroke-width="0.1" x1="130" x2="130" y1="-14.35" y2="28.72"></line><line fill="none" stroke="green" stroke-width="0.1" x1="140" x2="140" y1="-14.35" y2="28.72"></line><line fill="none" stroke="green" stroke-width="0.1" x1="150" x2="150" y1="-14.35" y2="28.72"></line><line fill="none" stroke="green" stroke-width="0.1" x1="160" x2="160" y1="-14.35" y2="28.72"></line><line fill="none" stroke="green" stroke-width="0.1" x1="170" x2="170" y1="-14.35" y2="28.72"></line><line fill="none" stroke="green" stroke-width="0.1" x1="180" x2="180" y1="-14.35" y2="28.72"></line><line fill="none" stroke="green" stroke-width="0.1" x1="190" x2="190" y1="-14.35" y2="28.72"></line><line fill="none" stroke="green" stroke-width="0.1" x1="200" x2="200" y1="-14.35" y2="28.72"></line><line fill="none" stroke="green" stroke-width="0.1" x1="-6" x2="206" y1="10" y2="10"></line><line fill="none" stroke="green" stroke-width="0.1" x1="-6" x2="206" y1="20" y2="20"></line><line fill="none" stroke="green" stroke-width="0.1" x1="-6" x2="206" y1="-10" y2="-10"></line>
<path fill="none" stroke="red" stroke-width="0.2" d="M 200 0 L 199.79 0.08 L 199.14 0.31 L 198.08 0.7 L 196.59 1.22 L 194.69 1.86 L 192.39 2.61 L 189.69 3.43 L 186.6 4.33 L 183.15 5.3 L 179.34 6.34 L 175.18 7.43 L 170.71 8.57 L 165.93 9.73 L 160.88 10.91 L 155.56 12.1 L 150 13.28 L 144.23 14.45 L 138.27 15.59 L 132.14 16.68 L 125.88 17.72 L 119.51 18.68 L 113.05 19.57 L 106.54 20.37 L 100 21.08 L 93.46 21.67 L 86.95 22.15 L 80.49 22.5 L 74.12 22.69 L 67.86 22.72 L 61.73 22.59 L 55.77 22.28 L 50 21.81 L 44.44 21.17 L 39.12 20.38 L 34.07 19.45 L 29.29 18.39 L 24.82 17.21 L 20.66 15.94 L 16.85 14.57 L 13.4 13.08 L 10.31 11.51 L 7.61 9.87 L 5.31 8.24 L 3.41 6.61 L 1.92 4.98 L 0.86 3.31 L 0.21 1.65 L 0 0.15 L 0.21 -1.13 L 0.86 -2.2 L 1.92 -3.18 L 3.41 -4.12 L 5.31 -5 L 7.61 -5.83 L 10.31 -6.56 L 13.4 -7.16 L 16.85 -7.63 L 20.66 -7.98 L 24.82 -8.21 L 29.29 -8.33 L 34.07 -8.35 L 39.12 -8.29 L 44.44 -8.16 L 50 -7.95 L 55.77 -7.69 L 61.73 -7.4 L 67.86 -7.09 L 74.12 -6.78 L 80.49 -6.46 L 86.95 -6.13 L 93.46 -5.78 L 100 -5.43 L 106.54 -5.06 L 113.05 -4.68 L 119.51 -4.3 L 125.88 -3.92 L 132.14 -3.54 L 138.27 -3.19 L 144.23 -2.86 L 150 -2.55 L 155.56 -2.27 L 160.88 -2.01 L 165.93 -1.77 L 170.71 -1.55 L 175.18 -1.35 L 179.34 -1.17 L 183.15 -1 L 186.6 -0.86 L 189.69 -0.73 L 192.39 -0.59 L 194.69 -0.45 L 196.59 -0.31 L 198.08 -0.18 L 199.14 -0.08 L 199.79 -0.02 L 200 0 "></path>
<path fill="none" stroke="blue" stroke-width="0.2" d="M 0 0 L 200 0 "></path>
<line fill="none" stroke="black" stroke-width="0.2" x1="-6" x2="206" y1="0" y2="0"></line>
<line fill="none" stroke="black" stroke-width="0.2" x1="0" x2="0" y1="-14.35" y2="28.72"></line>
</g>
</g>
<g transform="translate(0,43.076)"><g transform="scale(2,2)"><text fill="rgb(48,48,144)" font-size="1.8" style="font-family:Arial,Helvetica,sans-serif;" x="1" y="2">Name = NACA 4415</text><text fill="rgb(48,48,144)" font-size="1.8" style="font-family:Arial,Helvetica,sans-serif;" x="1" y="4">Chord = 200mm  Radius = 0mm  Thickness = 100%  Origin = 0%  Pitch = 0&#176; </text></g></g></svg>