<!DOCTYPE svg PUBLIC "-//W3C//DTD SVG 1.1//EN" "http://www.w3.org/Graphics/SVG/1.1/DTD/svg11.dtd">
<svg width="212mm" height="45.01mm" viewBox="0 0 212 45.01" xmlns="http://www.w3.org/2000/svg" version="1.1" xmlns:xlink="http://www.w3.org/1999/xlink">
<title>Airfoil plot (n0012-il) NACA 0012 AIRFOILS by AirfoilTools.com</title>
<g transform="translate(6,18.00344)"><g transform="scale(1,-1)"><line fill="none" stroke="green" stroke-width="0.1" x1="10" x2="10" y1="-18" y2="18"></line><line fill="none" stroke="green" stroke-width="0.1" x1="20" x2="20" y1="-18" y2="18"></line><line fill="none" stroke="green" stroke-width="0.1" x1="30" x2="30" y1="-18" y2="18"></line><line fill="none" stroke="green" stroke-width="0.1" x1="40" x2="40" y1="-18" y2="18"></line><line fill="none" stroke="green" stroke-width="0.1" x1="50" x2="50" y1="-18" y2="18"></line><line fill="none" stroke="green" stroke-width="0.1" x1="60" x2="60" y1="-18" y2="18"></line><line fill="none" stroke="green" stroke-width="0.1" x1="70" x2="70" y1="-18" y2="18"></line><line fill="none" stroke="green" stroke-width="0.1" x1="80" x2="80" y1="-18" y2="18"></line><line fill="none" stroke="green" stroke-width="0.1" x1="90" x2="90" y1="-18" y2="18"></line><line fill="none" stroke="green" stroke-width="0.1" x1="100" x2="100" y1="-18" y2="18"></line><line fill="none" stroke="green" stroke-width="0.1" x1="110" x2="110" y1="-18" y2="18"></line><line fill="none" stroke="green" stroke-width="0.1" x1="120" x2="120" y1="-18" y2="18"></line><line fill="none" stroke="green" stroke-width="0.1" x1="130" x2="130" y1="-18" y2="18"></line><line fill="none" stroke="green" stroke-width="0.1" x1="140" x2="140" y1="-18" y2="18"></line><line fill="none" stroke="green" stroke-width="0.1" x1="150" x2="150" y1="-18" y2="18"></line><line fill="none" stroke="green" stroke-width="0.1" x1="160" x2="160" y1="-18" y2="18"></line><line fill="none" stroke="green" stroke-width="0.1" x1="170" x2="170" y1="-18" y2="18"></line><line fill="none" stroke="green" stroke-width="0.1" x1="180" x2="180" y1="-18" y2="18"></line><line fill="none" stroke="green" stroke-width="0.1" x1="190" x2="190" y1="-18" y2="18"></line><line fill="none" stroke="green" stroke-width="0.1" x1="200" x2="200" y1="-18" y2="18"></line><line fill="none" stroke="green" stroke-width="0.1" x1="-6" x2="206" y1="10" y2="10"></line><line fill="none" stroke="green" stroke-width="0.1" x1="-6" x2="206" y1="-10" y2="-10"></line>
<path fill="none" stroke="red" stroke-width="0.2" d="M 200 0.25 L 199.88 0.27 L 199.53 0.32 L 198.95 0.4 L 198.14 0.51 L 197.09 0.66 L 195.82 0.83 L 194.33 1.03 L 192.62 1.26 L 190.69 1.52 L 188.55 1.8 L 186.2 2.11 L 183.65 2.44 L 180.9 2.78 L 177.97 3.15 L 174.85 3.53 L 171.56 3.92 L 168.1 4.33 L 164.48 4.74 L 160.72 5.17 L 156.81 5.6 L 152.76 6.03 L 148.6 6.47 L 144.32 6.9 L 139.94 7.33 L 135.46 7.76 L 130.9 8.18 L 126.27 8.6 L 121.58 9 L 116.84 9.38 L 112.05 9.75 L 107.24 10.1 L 102.42 10.43 L 97.58 10.74 L 92.76 11.02 L 87.95 11.26 L 83.16 11.48 L 78.42 11.66 L 73.73 11.81 L 69.1 11.91 L 64.54 11.98 L 60.06 12 L 55.68 11.98 L 51.4 11.92 L 47.24 11.8 L 43.19 11.64 L 39.28 11.43 L 35.52 11.18 L 31.9 10.87 L 28.44 10.53 L 25.15 10.13 L 22.03 9.69 L 19.1 9.21 L 16.35 8.69 L 13.8 8.13 L 11.45 7.53 L 9.31 6.9 L 7.38 6.23 L 5.67 5.54 L 4.18 4.81 L 2.91 4.07 L 1.86 3.29 L 1.05 2.5 L 0.47 1.69 L 0.12 0.85 L 0 0 L 0.12 -0.85 L 0.47 -1.69 L 1.05 -2.5 L 1.86 -3.29 L 2.91 -4.07 L 4.18 -4.81 L 5.67 -5.54 L 7.38 -6.23 L 9.31 -6.9 L 11.45 -7.53 L 13.8 -8.13 L 16.35 -8.69 L 19.1 -9.21 L 22.03 -9.69 L 25.15 -10.13 L 28.44 -10.53 L 31.9 -10.87 L 35.52 -11.18 L 39.28 -11.43 L 43.19 -11.64 L 47.24 -11.8 L 51.4 -11.92 L 55.68 -11.98 L 60.06 -12 L 64.54 -11.98 L 69.1 -11.91 L 73.73 -11.81 L 78.42 -11.66 L 83.16 -11.48 L 87.95 -11.26 L 92.76 -11.02 L 97.58 -10.74 L 102.42 -10.43 L 107.24 -10.1 L 112.05 -9.75 L 116.84 -9.38 L 121.58 -9 L 126.27 -8.6 L 130.9 -8.18 L 135.46 -7.76 L 139.94 -7.33 L 144.32 -6.9 L 148.6 -6.47 L 152.76 -6.03 L 156.81 -5.6 L 160.72 -5.17 L 164.48 -4.74 L 168.1 -4.33 L 171.56 -3.92 L 174.85 -3.53 L 177.97 -3.15 L 180.9 -2.78 L 183.65 -2.44 L 186.2 -2.11 L 188.55 -1.8 L 190.69 -1.52 L 192.62 -1.26 L 194.33 -1.03 L 195.82 -0.83 L 197.09 -0.66 L 198.14 -0.51 L 198.95 -0.4 L 199.53 -0.32 L 199.88 -0.27 L 200 -0.25 "></path>
<path fill="none" stroke="blue" stroke-width="0.2" d="M 0 0 L 200 0 "></path>
<line fill="none" stroke="black" stroke-width="0.2" x1="-6" x2="206" y1="0" y2="0"></line>
<line fill="none" stroke="black" stroke-width="0.2" x1="0" x2="0" y1="-18" y2="18"></line>
</g>
</g>
<g transform="translate(0,36.00688)"><g transform="scale(2,2)"><text fill="rgb(48,48,144)" font-size="1.8" style="font-family:Arial,Helvetica,sans-serif;" x="1" y="2">Name = NACA 0012 AIRFOILS</text><text fill="rgb(48,48,144)" font-size="1.8" style="font-family:Arial,Helvetica,sans-serif;" x="1" y="4">Chord = 200mm  Radius = 0mm  Thickness = 100%  Origin = 0%  Pitch = 0&#176; </text></g></g></svg>