<!DOCTYPE svg PUBLIC "-//W3C//DTD SVG 1.1//EN" "http://www.w3.org/Graphics/SVG/1.1/DTD/svg11.dtd">
<svg width="106mm" height="25.5mm" viewBox="0 0 106 25.5" xmlns="http://www.w3.org/2000/svg" version="1.1" xmlns:xlink="http://www.w3.org/1999/xlink">
<title>Airfoil plot (naca0015-il) NACA 0015 by AirfoilTools.com</title>
<g transform="translate(3,10.502)"><g transform="scale(1,-1)"><line fill="none" stroke="green" stroke-width="0.05" x1="10" x2="10" y1="-10.5" y2="10.5"></line><line fill="none" stroke="green" stroke-width="0.05" x1="20" x2="20" y1="-10.5" y2="10.5"></line><line fill="none" stroke="green" stroke-width="0.05" x1="30" x2="30" y1="-10.5" y2="10.5"></line><line fill="none" stroke="green" stroke-width="0.05" x1="40" x2="40" y1="-10.5" y2="10.5"></line><line fill="none" stroke="green" stroke-width="0.05" x1="50" x2="50" y1="-10.5" y2="10.5"></line><line fill="none" stroke="green" stroke-width="0.05" x1="60" x2="60" y1="-10.5" y2="10.5"></line><line fill="none" stroke="green" stroke-width="0.05" x1="70" x2="70" y1="-10.5" y2="10.5"></line><line fill="none" stroke="green" stroke-width="0.05" x1="80" x2="80" y1="-10.5" y2="10.5"></line><line fill="none" stroke="green" stroke-width="0.05" x1="90" x2="90" y1="-10.5" y2="10.5"></line><line fill="none" stroke="green" stroke-width="0.05" x1="100" x2="100" y1="-10.5" y2="10.5"></line><line fill="none" stroke="green" stroke-width="0.05" x1="-3" x2="103" y1="10" y2="10"></line><line fill="none" stroke="green" stroke-width="0.05" x1="-3" x2="103" y1="-10" y2="-10"></line>
<path fill="none" stroke="red" stroke-width="0.1" d="M 100 0.16 L 95 1.01 L 90 1.81 L 80 3.28 L 70 4.58 L 60 5.7 L 50 6.62 L 40 7.25 L 30 7.5 L 25 7.43 L 20 7.17 L 15 6.68 L 10 5.85 L 7.5 5.25 L 5 4.44 L 2.5 3.27 L 1.25 2.37 L 0 0 L 1.25 -2.37 L 2.5 -3.27 L 5 -4.44 L 7.5 -5.25 L 10 -5.85 L 15 -6.68 L 20 -7.17 L 25 -7.43 L 30 -7.5 L 40 -7.25 L 50 -6.62 L 60 -5.7 L 70 -4.58 L 80 -3.28 L 90 -1.81 L 95 -1.01 L 100 -0.16 "></path>
<path fill="none" stroke="blue" stroke-width="0.1" d="M 0 0 L 100 0 "></path>
<line fill="none" stroke="black" stroke-width="0.1" x1="-3" x2="103" y1="0" y2="0"></line>
<line fill="none" stroke="black" stroke-width="0.1" x1="0" x2="0" y1="-10.5" y2="10.5"></line>
</g>
</g>
<g transform="translate(0,21.004)"><g transform="scale(1,1)"><text fill="rgb(48,48,144)" font-size="1.8" style="font-family:Arial,Helvetica,sans-serif;" x="1" y="2">Name = NACA 0015</text><text fill="rgb(48,48,144)" font-size="1.8" style="font-family:Arial,Helvetica,sans-serif;" x="1" y="4">Chord = 100mm  Radius = 0mm  Thickness = 100%  Origin = 0%  Pitch = 0&#176; </text></g></g></svg>